<svg id="Layer_1" data-name="Layer 1" xmlns="http://www.w3.org/2000/svg" width="1226.5" height="1345.2" viewBox="0 0 1226.5 1345.2">
  <title>big-picture</title>
  <g id="Layer_1-2" data-name="Layer 1">
    <g>
      <path d="M750,164.54a80.55,80.55,0,1,0,80.55,80.55A80.64,80.64,0,0,0,750,164.54Z" transform="translate(-137.5 -68.39)" style="fill: #fff"/>
      <circle cx="728.11" cy="66.6" r="36.72" style="fill: #fff"/>
      <path d="M910.81,171.85l-1.52-3.38-2.48,2.76a55.37,55.37,0,0,1-22.16,15.25l-2.35.9,1,2.28a143.53,143.53,0,0,1,11,55.35c0,79.58-64.74,144.39-144.39,144.39S605.61,324.66,605.61,245.08,670.42,100.69,750,100.69a142.67,142.67,0,0,1,61.84,13.94l2.28,1.1,1-2.28a55.57,55.57,0,0,1,16.29-21.4l2.9-2.35L831,88a175.23,175.23,0,0,0-81-19.6c-97.45,0-176.69,79.23-176.69,176.69S652.55,421.77,750,421.77s176.69-79.23,176.69-176.69A175,175,0,0,0,910.81,171.85Z" transform="translate(-137.5 -68.39)" style="fill: #fff"/>
    </g>
  </g>
  <g>
    <polygon points="296.99 544.11 296.99 544.11 296.99 544.11 168.97 589.76 188.5 759.02 296.99 819.11 296.99 819.11 296.99 819.11 405.48 759.02 425 589.76 296.99 544.11" style="fill: #dc1431"/>
    <polygon points="296.99 544.11 296.99 574.63 296.99 574.49 296.99 713.78 296.99 713.78 296.99 819.11 296.99 819.11 405.48 759.02 425 589.76 296.99 544.11" style="fill: #c30e2f"/>
    <path d="M434.49,642.89l-80,179.44H384.3l16.09-40.15h67.93l16.09,40.15h29.84L434.49,642.89h0Zm23.38,114.54H411.11l23.38-56.24Z" transform="translate(-137.5 -68.39)" style="fill: #fff"/>
  </g>
  <g id="g10">
    <g id="g12">
      <path id="path14" d="M781.75,630.92l-31.75,55-31.75-55H612.5L750,869.08,887.5,630.92H781.75Z" transform="translate(-137.5 -68.39)" style="fill: #4ab083"/>
    </g>
    <g id="g16">
      <path id="path18" d="M781.75,630.92l-31.75,55-31.75-55H667.5L750,773.82l82.5-142.89H781.75Z" transform="translate(-137.5 -68.39)" style="fill: #435466"/>
    </g>
  </g>
  <g>
    <path d="M1212.5,750c0-18.22-22.81-35.48-57.79-46.19,8.07-35.65,4.48-64-11.32-73.09a24.58,24.58,0,0,0-12.56-3.14v12.5a13,13,0,0,1,6.39,1.46c7.62,4.37,10.93,21,8.35,42.43-0.62,5.27-1.63,10.82-2.86,16.48a271.65,271.65,0,0,0-35.59-6.11,273.43,273.43,0,0,0-23.32-28c18.27-17,35.43-26.29,47.09-26.29v-12.5h0c-15.41,0-35.59,11-56,30-20.4-18.95-40.58-29.82-56-29.82v12.5c11.6,0,28.81,9.25,47.09,26.12a264.75,264.75,0,0,0-23.15,28,261.76,261.76,0,0,0-35.65,6.17c-1.29-5.61-2.24-11-2.91-16.26-2.63-21.41.62-38.06,8.18-42.49a12.47,12.47,0,0,1,6.45-1.46v-12.5h0a25,25,0,0,0-12.67,3.14c-15.75,9.08-19.28,37.39-11.15,72.93-34.87,10.76-57.57,28-57.57,46.13s22.81,35.48,57.79,46.19c-8.07,35.65-4.48,64,11.32,73.09a24.64,24.64,0,0,0,12.61,3.14c15.41,0,35.59-11,56-30,20.4,18.95,40.58,29.82,56,29.82a25,25,0,0,0,12.67-3.14c15.75-9.08,19.28-37.39,11.15-72.93C1189.8,785.45,1212.5,768.19,1212.5,750Zm-73-37.39c-2.07,7.23-4.65,14.69-7.57,22.14-2.3-4.48-4.71-9-7.34-13.45s-5.33-8.86-8.07-13.12C1124.5,709.39,1132.17,710.85,1139.52,712.64Zm-25.67,59.7c-4.37,7.57-8.86,14.74-13.51,21.41-8.35.73-16.82,1.12-25.34,1.12s-16.93-.39-25.22-1.07q-7-10-13.57-21.3-6.39-11-11.66-22.31c3.48-7.51,7.4-15,11.6-22.37,4.37-7.57,8.86-14.74,13.51-21.41,8.35-.73,16.82-1.12,25.34-1.12s16.93,0.39,25.22,1.07q7,10,13.57,21.3,6.39,11,11.66,22.31C1121.92,757.48,1118,765,1113.85,772.34Zm18.11-7.29c3,7.51,5.61,15,7.74,22.31-7.34,1.79-15.08,3.31-23.09,4.48,2.75-4.32,5.49-8.74,8.07-13.28S1129.65,769.53,1132,765.05Zm-56.84,59.81a231.09,231.09,0,0,1-15.58-17.94c5,0.22,10.2.39,15.41,0.39s10.48-.11,15.58-0.39A218.79,218.79,0,0,1,1075.11,824.86Zm-41.7-33c-8-1.18-15.64-2.63-23-4.43,2.07-7.23,4.65-14.69,7.57-22.14,2.3,4.48,4.71,9,7.34,13.45S1030.66,787.58,1033.41,791.84Zm41.42-116.65a231.09,231.09,0,0,1,15.58,17.94c-5-.22-10.2-0.39-15.41-0.39s-10.48.11-15.58,0.39A218.79,218.79,0,0,1,1074.83,675.2Zm-41.48,33c-2.75,4.32-5.49,8.74-8.07,13.28s-5,9-7.29,13.45c-3-7.51-5.61-15-7.74-22.31C1017.6,710.9,1025.34,709.39,1033.35,708.21Zm-50.73,70.18c-19.84-8.46-32.68-19.56-32.68-28.36s12.84-20,32.68-28.36c4.82-2.07,10.09-3.92,15.53-5.66a269.22,269.22,0,0,0,12.61,34.14,265.42,265.42,0,0,0-12.44,34C992.77,782.37,987.5,780.47,982.62,778.39Zm30.16,80.1c-7.62-4.37-10.93-21-8.35-42.43,0.62-5.27,1.63-10.82,2.86-16.48a271.65,271.65,0,0,0,35.59,6.11,273.43,273.43,0,0,0,23.32,28c-18.27,17-35.43,26.29-47.09,26.29A13.38,13.38,0,0,1,1012.78,858.49Zm133-42.71c2.63,21.41-.62,38.06-8.18,42.49a12.47,12.47,0,0,1-6.45,1.46c-11.6,0-28.81-9.25-47.09-26.12a264.75,264.75,0,0,0,23.15-28,261.76,261.76,0,0,0,35.65-6.17A156.93,156.93,0,0,1,1145.74,815.78Zm21.58-37.39c-4.82,2.07-10.09,3.92-15.53,5.66a269.22,269.22,0,0,0-12.61-34.14,265.42,265.42,0,0,0,12.44-34c5.55,1.74,10.82,3.64,15.75,5.72,19.84,8.46,32.68,19.56,32.68,28.36S1187.16,770,1167.32,778.39Z" transform="translate(-137.5 -68.39)" style="fill: #61c3db"/>
    <path d="M1018.83,627.77h0Z" transform="translate(-137.5 -68.39)" style="fill: #61c3db"/>
    <circle cx="937.44" cy="681.63" r="25.62" style="fill: #61c3db"/>
    <path d="M1130.77,627.61h0Z" transform="translate(-137.5 -68.39)" style="fill: #61c3db"/>
  </g>
  <g>
    <path d="M387.5,1370.28H343l3.12-37.5H324.22l-3.12,37.5H228.91l-3.13-37.5H203.91l3.13,37.5H162.5l-25-162.5,62.5-100H350l62.5,100Zm-50-212.5H297.32l2.68,18.75H250l2.68-18.75H212.5l-25,50,12.5,100H350l12.5-100-25-50h0Zm-21.88,116.81c-3.45,0-6.25-10.41-6.25-23.25s2.8-23.25,6.25-23.25,6.25,10.41,6.25,23.25S319.08,1274.59,315.62,1274.59Zm-78.91,1.94c-3.45,0-6.25-10.41-6.25-23.25s2.8-23.25,6.25-23.25,6.25,10.41,6.25,23.25S240.17,1276.53,236.72,1276.53Z" transform="translate(-137.5 -68.39)" style="fill: #fff"/>
    <g>
      <polygon points="475.15 1149.5 544.58 1218.93 475 1288.51 508.88 1322.38 578.46 1252.81 647.89 1322.23 681.77 1288.36 509.03 1115.62 475.15 1149.5" style="fill: #fff"/>
      <polygon points="750 1081.26 716.12 1047.38 646.54 1116.96 577.11 1047.54 543.23 1081.41 715.97 1254.15 749.85 1220.27 680.42 1150.84 750 1081.26" style="fill: #fff"/>
    </g>
    <g>
      <g>
        <path d="M1282.2,1303.88l7-17.71h20.22l-9.6-26.86,12-30.35,34.38,91.27h-25.35l-5.87-16.35H1282.2Z" transform="translate(-137.5 -68.39)" style="fill: #fff"/>
        <path d="M1260.58,1320.23l36.8-91.27H1273l-25.17,59-17.9-59h-18.75l-19.22,59-13.55-26.88-12.27,37.79,12.45,21.38h24l17.37-52.89,16.56,52.89h24.07Z" transform="translate(-137.5 -68.39)" style="fill: #fff"/>
        <path d="M1126.95,1288.89h15a44.31,44.31,0,0,0,12.16-1.52l3.89-12,10.86-33.46a26.74,26.74,0,0,0-2.83-3.72q-8.37-9.26-24.48-9.26h-37.78v91.27h23.16v-31.33Zm19.89-38.94a11.94,11.94,0,0,1,3.27,8.8q0,5.56-2.87,8.81-3.15,3.62-11.6,3.62h-8.68v-24.52h8.75Q1143.57,1246.66,1146.84,1250Z" transform="translate(-137.5 -68.39)" style="fill: #fff"/>
      </g>
      <rect x="950" y="1068.7" width="275" height="275" rx="83.73" ry="83.73" style="fill: none;stroke: #fff;stroke-miterlimit: 10;stroke-width: 3px"/>
    </g>
  </g>
</svg>
