<svg id="Layer_1" data-name="Layer 1" xmlns="http://www.w3.org/2000/svg" width="500" height="500" viewBox="0 0 500 500">
  <title>stencil-logo-type</title>
  <rect x="76.38" y="72.99" width="349.28" height="362.32" style="fill: #fff"/>
  <path d="M328.53,0H171.47C77.14,0,0,77.14,0,171.47V328.53C0,422.86,77.14,500,171.47,500H328.53C422.86,500,500,422.86,500,328.53V171.47C500,77.14,422.86,0,328.53,0ZM367.1,330.16c0,26.25-38.1,47.63-64.36,47.63H197.26c-26.25,0-64.36-21.38-64.36-47.63V327.6H367.1v2.56Zm0-55.07H197.26c-26.25,0-64.36-21.38-64.36-47.63v-2.56H302.74c26.25,0,64.36,21.38,64.36,47.63v2.56Zm0-102.7H132.9v-2.56c0-26.25,38.1-47.63,64.36-47.63H302.74c26.25,0,64.36,21.38,64.36,47.63v2.56Z" transform="translate(0 0)"/>
</svg>
